<?xml version="1.0" standalone="no"?>
<!DOCTYPE svg PUBLIC "-//W3C//DTD SVG 20010904//EN"
 "http://www.w3.org/TR/2001/REC-SVG-20010904/DTD/svg10.dtd">
<svg version="1.0" xmlns="http://www.w3.org/2000/svg"
 width="348.000000pt" height="348.000000pt" viewBox="0 0 348.000000 348.000000"
 preserveAspectRatio="xMidYMid meet">
<metadata>
Created by potrace 1.16, written by Peter Selinger 2001-2019
</metadata>
<g transform="translate(0.000000,348.000000) scale(0.100000,-0.100000)"
fill="#000000" stroke="none">
<path d="M1590 3474 c-228 -28 -377 -67 -549 -142 -543 -238 -927 -740 -1022
-1337 -17 -103 -17 -407 0 -510 41 -258 137 -504 283 -721 100 -150 312 -362
462 -462 217 -146 461 -241 721 -283 117 -19 417 -17 540 5 734 126 1307 698
1432 1428 24 141 24 434 0 575 -123 721 -685 1293 -1400 1423 -108 20 -384 34
-467 24z m367 -79 c264 -35 488 -119 705 -264 186 -125 326 -260 446 -434 66
-96 70 -106 39 -100 -46 9 -231 -20 -484 -74 -17 -4 -41 14 -110 84 -352 354
-787 540 -1179 502 -266 -25 -598 -146 -809 -294 -71 -50 -219 -191 -269 -255
l-27 -35 17 35 c47 97 168 253 285 369 365 362 874 533 1386 466z m48 -619
c161 -47 332 -142 450 -248 l50 -46 -105 -31 c-58 -18 -197 -61 -310 -98 -201
-64 -206 -65 -265 -55 -33 6 -240 47 -459 91 -220 45 -401 81 -403 81 -11 0
109 97 176 142 133 91 303 164 433 187 29 6 118 8 198 7 121 -3 160 -8 235
-30z m1320 -511 c105 -314 112 -670 19 -993 -135 -468 -483 -862 -937 -1063
-146 -65 -396 -129 -500 -129 l-23 0 27 58 c38 79 66 165 104 317 l32 130 44
13 c156 45 288 91 378 134 212 98 406 253 532 422 114 153 214 400 260 641 33
172 33 408 1 552 -13 57 -29 118 -37 137 -8 20 -15 39 -14 43 1 18 83 -169
114 -262z m-3055 122 c19 -28 99 -118 178 -198 l143 -147 -20 -78 c-37 -146
-54 -292 -54 -459 0 -309 63 -528 216 -758 78 -116 278 -318 407 -410 184
-130 394 -221 580 -251 l95 -16 -135 5 c-422 13 -810 180 -1108 476 -256 253
-414 553 -478 909 -25 136 -25 419 0 560 27 151 113 421 135 420 3 0 22 -24
41 -53z m1610 -253 c116 -45 210 -137 251 -244 84 -221 -28 -459 -256 -546
-36 -14 -76 -19 -140 -19 -83 0 -96 3 -165 36 -131 63 -215 172 -241 313 -38
206 106 422 319 476 53 13 179 5 232 -16z m914 -225 c31 -298 -28 -568 -167
-774 -58 -85 -179 -203 -272 -265 -71 -48 -264 -144 -272 -136 -2 2 14 108 36
237 22 129 43 265 47 303 8 82 -6 64 295 371 113 116 230 236 259 268 30 31
57 57 61 57 3 0 9 -28 13 -61z m-2000 -37 c86 -74 328 -270 373 -302 21 -15
32 -43 218 -560 37 -102 75 -209 86 -238 10 -29 19 -57 19 -62 0 -12 -137 38
-222 81 -366 184 -569 489 -585 880 -5 120 3 279 14 279 3 0 46 -35 97 -78z"/>
</g>
</svg>
