<svg width="800" height="806" viewBox="0 0 800 806" fill="none" xmlns="http://www.w3.org/2000/svg">
<g clip-path="url(#clip0_41_339)">
<path d="M491.989 6.49017C506.048 5.20926 520.222 6.44373 533.847 10.1357C542.001 13.3633 549.202 18.6067 554.775 25.3749C562.428 37.2598 567.896 50.4148 570.921 64.2206L706.45 490.51C717.036 515.556 722.982 542.317 724 569.487C722.66 586.216 716.993 602.31 707.556 616.191C689.688 636.697 668.242 653.789 644.262 666.632L489.298 768.707C470.246 783.654 448.862 795.365 426.004 803.369C411.261 806.876 395.899 806.876 381.156 803.369C358.449 795.265 337.236 783.473 318.37 768.468L165.051 666.452C141.312 653.646 120.107 636.625 102.474 616.222C93.1027 602.415 87.431 586.437 86 569.815C86.9385 542.864 92.7315 516.303 103.102 491.406L236.747 64.3701C239.706 50.5678 245.124 37.4099 252.743 25.5244C258.291 18.7149 265.498 13.4466 273.672 10.2255C287.287 6.47795 301.466 5.2125 315.529 6.49017H491.989ZM297.321 518.181C293.713 530.278 291.949 542.85 292.089 555.473C291.324 584.638 301.915 612.962 321.629 634.479C321.647 630.468 322.449 626.499 323.99 622.796C327.095 615.341 333.03 609.42 340.494 606.331C344.203 604.809 348.175 604.028 352.185 604.03C380.947 604.03 380.947 629.16 380.947 649.569V651.393C380.945 666.099 385.302 680.476 393.471 692.708C401.639 704.94 413.251 714.479 426.841 720.119C422.704 711.61 420.567 702.268 420.592 692.808C420.592 663.315 437.933 652.199 458.084 639.41C477.296 629.212 493.306 613.894 504.337 595.155C509.703 585.262 513.017 574.388 514.08 563.185C515.143 551.982 513.935 540.679 510.526 529.954C480.537 549.936 444.854 559.616 408.872 557.534V557.624C354.726 557.624 309.281 540.801 297.321 518.181ZM481.645 84.1816C470.198 81.091 458.289 80.0788 446.484 81.1933H362.978C351.183 80.0798 339.284 81.092 327.848 84.1816C321.059 86.9351 315.074 91.3548 310.446 97.0312C304.101 107.04 299.624 118.116 297.231 129.721L180.389 511.726C224.276 488.934 271.408 473.02 320.134 464.543L394.88 208.848C395.48 206.82 396.73 205.046 398.438 203.798C399.71 202.859 401.188 202.238 402.75 201.988C404.312 201.738 405.91 201.866 407.412 202.36C408.914 202.855 410.276 203.701 411.383 204.83C412.49 205.959 413.311 207.337 413.775 208.848L489.388 464.633C537.884 473.128 584.798 488.979 628.505 511.637L512.141 129.632C509.724 118.048 505.259 106.987 498.955 96.9706L499.075 97.0908C494.45 91.3847 488.453 86.9431 481.645 84.1816Z" fill="currentColor"/>
</g>
<defs>
<clipPath id="clip0_41_339">
<rect width="638" height="800" fill="white" transform="translate(86 6)"/>
</clipPath>
</defs>
</svg>
