<svg width="800" height="800" viewBox="0 0 800 800" fill="none" xmlns="http://www.w3.org/2000/svg">
<path d="M237.853 369.592C225.917 356.841 207.319 357.564 199.207 373.788L3.47244 765.266C-0.156251 772.52 0.230243 781.135 4.49385 788.035C8.75746 794.934 16.29 799.134 24.4007 799.133H296.989C305.911 799.34 314.117 794.268 317.921 786.194C376.698 664.668 341.088 479.892 237.853 369.592Z" fill="url(#paint0_linear_41_369)"/>
<path d="M381.487 13.5365C272.01 186.989 279.233 379.093 351.343 523.317L482.782 786.195C486.745 794.122 494.847 799.129 503.71 799.129H776.294C784.404 799.13 791.937 794.93 796.2 788.031C800.464 781.131 800.85 772.516 797.222 765.262C797.222 765.262 430.514 31.7403 421.289 13.3876C413.041 -3.04229 392.091 -3.26568 381.487 13.5365Z" fill="currentColor"/>
<defs>
<linearGradient id="paint0_linear_41_369" x1="345.157" y1="430.016" x2="70.7344" y2="724.793" gradientUnits="userSpaceOnUse">
<stop/>
<stop offset="0.923" stop-color="#272727"/>
</linearGradient>
</defs>
</svg>
