<svg width="808" height="800" viewBox="0 0 808 800" fill="none" xmlns="http://www.w3.org/2000/svg">
<path d="M696.847 0C753.815 0 800 46.1781 800 103.156V696.847C800 753.815 753.822 800 696.844 800H103.153C46.1846 800 0 753.822 0 696.847V103.153C0 46.1846 46.1781 0 103.156 0H696.847ZM225.234 642.188H459.959C481.668 642.188 502.812 639.475 523.391 634.047C543.969 628.619 562.285 620.254 578.341 608.947C594.394 597.641 607.172 583.053 616.669 565.19C626.169 547.325 630.916 526.181 630.916 501.76C630.916 471.457 623.566 445.565 608.869 424.084C594.169 402.6 571.894 387.562 542.044 378.969C563.753 368.569 580.15 355.225 591.231 338.943C602.309 322.662 607.85 302.312 607.85 277.888C607.85 255.275 604.119 236.281 596.656 220.903C589.194 205.528 578.678 193.204 565.109 183.932C551.544 174.66 535.262 167.988 516.266 163.919C497.272 159.847 476.24 157.812 453.175 157.812H225.234V642.188ZM447.747 426.456C470.813 426.456 489.356 431.769 503.378 442.4C517.397 453.029 524.409 470.778 524.409 495.653C524.409 508.319 522.26 518.719 517.963 526.859C513.666 535 507.9 541.446 500.662 546.193C493.428 550.943 485.059 554.335 475.562 556.372C466.063 558.403 456.116 559.422 445.713 559.422H331.744V426.456H447.747ZM431.466 240.578C440.966 240.578 450.122 241.369 458.94 242.953C467.759 244.534 475.562 247.36 482.347 251.432C489.128 255.503 494.556 261.156 498.628 268.391C502.697 275.628 504.734 284.9 504.734 296.203C504.734 316.556 498.628 331.256 486.416 340.3C474.207 349.347 458.603 353.869 439.606 353.869H331.744V240.578H431.466Z" fill="currentColor"/>
</svg>
