<svg width="800" height="800" viewBox="0 0 800 800" fill="none" xmlns="http://www.w3.org/2000/svg">
<g clip-path="url(#clip0_41_348)">
<path d="M685.833 714.286L400 800L114.167 714.286L57 0H743L685.833 714.286ZM185.625 157.143L199.917 242.857H428.583L199.917 314.286L214.208 414.286H500.042L485.75 528.571L400 557.143L314.25 528.571L299.958 457.143H214.208L228.5 600L400 657.143L571.5 600L600.083 328.571H428.583L614.375 257.143L628.667 157.143H185.625Z" fill="currentColor"/>
<path d="M685.833 58.2861L628.667 686.857L400 758.286V658.286L571.5 601.143L600.083 329.714H428.583L614.375 258.286L628.667 158.286H400V58.2861H685.833ZM500.042 415.429L485.75 529.714L400 558.286V415.429H500.042ZM428.583 244L400 252.928V244H428.583Z" fill="#101010"/>
</g>
<defs>
<clipPath id="clip0_41_348">
<rect width="686" height="800" fill="white" transform="translate(57)"/>
</clipPath>
</defs>
</svg>
