<svg width="812" height="812" viewBox="0 0 812 812" fill="none" xmlns="http://www.w3.org/2000/svg">
<g clip-path="url(#clip0_41_359)">
<path d="M411.136 0C632.049 0.000263896 811.136 179.086 811.136 400C811.136 620.914 632.049 800 411.136 800C190.222 800 11.1348 620.914 11.1348 400C11.1348 179.086 190.222 0 411.136 0ZM103.635 480C101.291 479.972 98.9676 480.435 96.8145 481.361C94.6613 482.287 92.7262 483.654 91.1348 485.375C89.4949 487.015 88.1972 488.965 87.3174 491.11C86.4376 493.256 85.9931 495.556 86.0098 497.875C85.979 500.196 86.4173 502.5 87.2979 504.647C88.1784 506.795 89.4835 508.744 91.1348 510.375C92.7421 512.067 94.6834 513.407 96.835 514.311C98.9864 515.214 101.302 515.662 103.635 515.625C105.965 515.64 108.274 515.182 110.423 514.279C112.571 513.377 114.514 512.049 116.135 510.375C117.815 508.759 119.147 506.816 120.05 504.667C120.953 502.518 121.407 500.206 121.385 497.875C121.392 495.546 120.931 493.239 120.029 491.092C119.127 488.945 117.803 487 116.135 485.375C114.529 483.673 112.591 482.317 110.441 481.393C108.292 480.468 105.975 479.994 103.635 480ZM168.51 512.5H195.135V347.75C195.416 337.317 194.998 326.877 193.885 316.5H194.885C196.792 321.492 199.222 326.269 202.135 330.75L319.26 512.5H352.01V284.625H325.385V444.875C325.148 456.066 325.691 467.26 327.01 478.375H326.385C324.968 475.625 321.885 470.542 317.135 463.125L203.135 284.625H168.51V512.5ZM411.135 512.5H532.26L532.385 487.5H438.385V408.5H520.635V384.5H438.385V308.75H526.635V284.625H411.135V512.5ZM552.76 284.625V308.75H618.26V512.5H644.885V308.75H711.135V284.625H552.76Z" fill="currentColor"/>
<path opacity="0.1" d="M327.004 304.5V445.375C326.767 456.566 327.31 467.76 328.629 478.875H328.004C326.587 476.125 323.504 471.042 318.754 463.625L204.754 285.125H170.129V513H196.754V348.25C197.035 337.817 196.617 327.377 195.504 317H196.504C198.411 321.992 200.841 326.769 203.754 331.25L320.879 513H353.629V331.125L412.754 390.25V513H533.879L533.886 511.383L700.254 677.75C664.018 718.413 616.993 747.506 567.62 770.5C518.246 793.493 466.562 797.934 412.12 799.5C357.677 801.066 310.234 790.617 259.62 770.5C209.006 750.383 166.133 721.013 127.62 682.5C89.1071 643.987 63.7371 607.614 43.6198 557C23.5025 506.386 9.55369 452.443 11.1198 398C12.6859 343.557 20.6263 293.374 43.6198 244C66.6133 194.626 94.8407 149.235 135.504 113L327.004 304.5ZM105.254 480.5C102.91 480.472 100.586 480.935 98.4333 481.861C96.2801 482.787 94.3451 484.154 92.7536 485.875C91.1137 487.515 89.816 489.465 88.9362 491.61C88.0564 493.756 87.6119 496.056 87.6286 498.375C87.5978 500.696 88.0361 503 88.9167 505.147C89.7973 507.295 91.1023 509.244 92.7536 510.875C94.3608 512.567 96.3014 513.907 98.4528 514.811C100.604 515.714 102.92 516.162 105.254 516.125C107.584 516.14 109.892 515.682 112.041 514.779C114.189 513.877 116.133 512.549 117.754 510.875C119.433 509.259 120.766 507.316 121.669 505.167C122.571 503.018 123.025 500.706 123.004 498.375C123.011 496.046 122.55 493.739 121.648 491.592C120.746 489.445 119.422 487.5 117.754 485.875C116.148 484.173 114.21 482.817 112.06 481.893C109.91 480.968 107.594 480.494 105.254 480.5ZM510.504 488H440.004V417.5L510.504 488Z" fill="white"/>
</g>
<defs>
<clipPath id="clip0_41_359">
<rect width="811.134" height="811.134" fill="white"/>
</clipPath>
</defs>
</svg>
