<svg width="800" height="800" viewBox="0 0 800 800" fill="none" xmlns="http://www.w3.org/2000/svg">
<path d="M379.09 304.604C385.632 294.961 392.794 293.734 398.604 293.734C404.414 293.734 414.093 294.961 420.638 304.604C472.207 375.436 557.33 516.538 620.122 620.621C661.07 688.498 692.521 740.631 698.974 747.265C723.197 772.172 756.417 756.65 775.721 728.399C794.725 700.587 800 681.057 800 660.222C800 646.032 524.673 133.973 496.944 91.3507C470.279 50.355 461.594 40 415.954 40H381.802C336.299 40 329.723 50.355 303.055 91.3507C275.329 133.973 0 646.032 0 660.222C0 681.057 5.27588 700.587 24.2806 728.399C43.5844 756.65 76.8046 772.172 101.027 747.265C107.48 740.631 138.931 688.498 179.88 620.621C242.671 516.538 327.521 375.436 379.09 304.604Z" fill="currentColor"/>
</svg>
