<svg width="800" height="800" viewBox="0 0 800 800" fill="none" xmlns="http://www.w3.org/2000/svg">
<g clip-path="url(#clip0_41_354)">
<path d="M400.5 400C400.5 326.527 458.617 267.019 530.25 267.019C601.94 267.019 660 326.47 660 400C660 473.473 601.94 532.981 530.25 532.981C458.674 532.981 400.5 473.53 400.5 400Z" fill="currentColor"/>
<path d="M141 666.019C141 592.546 199.117 532.981 270.75 532.981H400.5V666.019C400.5 739.435 342.383 799 270.75 799C199.117 799 141 739.435 141 666.019Z" fill="currentColor"/>
<path d="M400.5 1V267.019H530.25C601.94 267.019 660 207.454 660 133.981C660 60.565 601.94 1 530.25 1H400.5Z" fill="currentColor"/>
<path d="M141 133.981C141 207.454 199.117 267.019 270.75 267.019H400.5V1H270.75C199.117 1 141 60.565 141 133.981Z" fill="currentColor"/>
<path d="M141 400C141 473.473 199.117 532.981 270.75 532.981H400.5V267.019H270.75C199.117 267.019 141 326.47 141 400Z" fill="currentColor"/>
</g>
<defs>
<clipPath id="clip0_41_354">
<rect width="519" height="798" fill="white" transform="translate(141 1)"/>
</clipPath>
</defs>
</svg>
