<svg width="793" height="800" viewBox="0 0 793 800" fill="none" xmlns="http://www.w3.org/2000/svg">
<g clip-path="url(#clip0_41_338)">
<path d="M280.275 777.005C313.681 790.478 349.922 798.472 387.976 799.804C439.476 801.606 488.45 790.937 532.231 770.67C479.73 750 432.182 719.774 391.6 682.193C365.296 724.396 326.389 757.731 280.275 777.005Z" fill="#121212"/>
<path d="M391.596 682.206C298.962 596.359 242.767 472.107 247.516 335.823C247.671 331.399 247.904 326.976 248.177 322.554C231.257 318.158 213.909 315.627 196.441 315.007C171.616 314.128 146.805 317.117 122.895 323.867C98.1654 367.271 83.2443 417.073 81.3849 470.417C76.5869 608.083 159.729 728.373 280.269 777.018C326.385 757.743 365.29 724.449 391.596 682.206Z" fill="#101010"/>
<path d="M391.597 682.202C413.134 647.665 426.191 607.176 427.712 563.553C431.711 448.804 354.727 350.093 248.178 322.549C247.905 326.971 247.672 331.394 247.517 335.819C242.768 472.102 298.964 596.355 391.597 682.202Z" fill="#121212"/>
<path d="M415.797 0C355.114 48.7146 307.195 112.948 278.202 186.944C261.604 229.327 251.174 274.854 248.129 322.578C354.677 350.122 431.663 448.833 427.664 563.581C426.143 607.204 413.047 647.654 391.548 682.231C432.127 719.85 479.676 750.038 532.177 770.705C637.558 721.894 712.326 616.863 716.655 492.631C719.46 412.141 688.598 340.403 644.988 279.852C598.933 215.811 415.797 0.00143986 415.797 0.00143986V0Z" fill="currentColor"/>
</g>
<defs>
<clipPath id="clip0_41_338">
<rect width="635.644" height="800" fill="white" transform="translate(81.1875)"/>
</clipPath>
</defs>
</svg>
