<svg width="800" height="800" viewBox="0 0 800 800" fill="none" xmlns="http://www.w3.org/2000/svg">
<g clip-path="url(#clip0_41_340)">
<path d="M359.623 16.7246C381.923 -5.57486 418.077 -5.57486 440.377 16.7246L783.274 359.623C805.574 381.923 805.574 418.077 783.274 440.377L440.377 783.274C418.077 805.574 381.923 805.574 359.623 783.274L16.7246 440.377C-5.57486 418.077 -5.57486 381.923 16.7246 359.623L359.623 16.7246ZM255.245 122.196L344.929 211.879C341.3 219.662 339.274 228.343 339.274 237.497C339.274 263.486 355.602 285.66 378.56 294.32V513.709C355.603 522.369 339.275 544.543 339.274 570.531C339.274 604.063 366.457 631.246 399.988 631.246C433.52 631.246 460.703 604.063 460.703 570.531C460.703 546.971 447.282 526.543 427.668 516.48V294.62L513.397 380.349C509.946 387.974 508.025 396.44 508.025 405.354C508.025 438.886 535.209 466.068 568.74 466.068C602.271 466.068 629.454 438.886 629.454 405.354C629.454 371.823 602.272 344.64 568.74 344.64C562.223 344.64 555.948 345.665 550.062 347.565L457.991 255.494C459.754 249.808 460.703 243.763 460.703 237.497C460.703 203.965 433.52 176.782 399.988 176.782C393.723 176.782 387.68 177.732 381.991 179.494L289.968 87.4717L255.245 122.196Z" fill="currentColor"/>
</g>
<defs>
<clipPath id="clip0_41_340">
<rect width="800" height="800" fill="white"/>
</clipPath>
</defs>
</svg>
