<svg width="800" height="800" viewBox="0 0 800 800" fill="none" xmlns="http://www.w3.org/2000/svg">
<g clip-path="url(#clip0_41_356)">
<path d="M684.25 712.821L400.5 798L116.75 712.821L60 3H741L684.25 712.821ZM187.688 144.964L216.062 414.696H499.812L485.625 528.268L400.5 556.661L315.375 528.268L301.188 457.286H216.062L230.25 599.25L400.5 656.036L570.75 599.25L599.125 329.518H287L272.812 230.143H613.312L627.5 144.964H187.688Z" fill="currentColor"/>
<path d="M684.25 59.7861L627.5 684.429L400.5 755.411V656.036L570.75 599.25L599.125 329.518H400.5V230.143H613.312L627.5 144.964H400.5V59.7861H684.25ZM499.812 414.696L485.625 528.268L400.5 556.661V414.696H499.812Z" fill="#101010"/>
</g>
<defs>
<clipPath id="clip0_41_356">
<rect width="681" height="795" fill="white" transform="translate(60 3)"/>
</clipPath>
</defs>
</svg>
