<svg width="800" height="800" viewBox="0 0 800 800" fill="none" xmlns="http://www.w3.org/2000/svg">
<path d="M800 800H0V0H800V800ZM608.83 362.979C541.702 362.98 498.741 405.941 498.741 462.327C498.741 523.547 534.723 552.546 588.964 575.633L607.754 583.694C642.123 598.725 662.528 607.855 662.528 633.632C662.528 655.112 642.664 670.687 611.514 670.687C574.462 670.687 553.519 651.356 537.404 625.04L476.19 660.482C498.204 703.982 543.315 737.274 613.126 737.274C684.547 737.274 737.711 700.225 737.711 632.558C737.711 569.73 701.73 541.808 637.825 514.419L619.031 506.364C586.814 492.401 572.851 483.27 572.851 460.715C572.851 442.46 586.814 428.498 608.832 428.498C630.311 428.498 644.269 437.625 657.158 460.715L715.692 423.126C690.993 379.628 656.624 362.979 608.83 362.979ZM360.175 622.896C360.175 660.484 344.601 670.147 319.897 670.147C294.126 670.147 283.381 652.429 271.57 631.488L210.348 668.532C228.068 706.121 262.979 737.269 323.12 737.269C389.712 737.269 435.354 701.826 435.354 623.959V367.277H360.175V622.896Z" fill="currentColor"/>
</svg>
