<?xml version="1.0" encoding="UTF-8" standalone="no"?>
<!-- Uploaded to: SVG Repo, www.svgrepo.com, Generator: SVG Repo Mixer Tools -->

<svg
   width="651.29944"
   height="741.35864"
   viewBox="-3.8 -1.5 33.31478 37.921421"
   version="1.1"
   id="svg16"
   sodipodi:docname="7918e0d9cae650ca22075885c8cd8e65.svg"
   xmlns:inkscape="http://www.inkscape.org/namespaces/inkscape"
   xmlns:sodipodi="http://sodipodi.sourceforge.net/DTD/sodipodi-0.dtd"
   xmlns="http://www.w3.org/2000/svg"
   xmlns:svg="http://www.w3.org/2000/svg">
  <sodipodi:namedview
     id="namedview16"
     pagecolor="#ffffff"
     bordercolor="#000000"
     borderopacity="0.25"
     inkscape:showpageshadow="2"
     inkscape:pageopacity="0.0"
     inkscape:pagecheckerboard="0"
     inkscape:deskcolor="#d1d1d1" />
  <defs
     id="defs13">
    <linearGradient
       id="b"
       x1="271.97"
       x2="211.104"
       y1="217.606"
       y2="341.772"
       gradientUnits="userSpaceOnUse">
      <stop
         offset=".3"
         stop-color="#3e863d"
         id="stop1" />
      <stop
         offset=".5"
         stop-color="#55934f"
         id="stop2" />
      <stop
         offset=".8"
         stop-color="#5aad45"
         id="stop3" />
    </linearGradient>
    <linearGradient
       id="d"
       x1="186.48399"
       x2="297.349"
       y1="321.38101"
       y2="239.465"
       gradientUnits="userSpaceOnUse">
      <stop
         offset=".57"
         stop-color="#3e863d"
         id="stop4" />
      <stop
         offset=".72"
         stop-color="#619857"
         id="stop5" />
      <stop
         offset="1"
         stop-color="#76ac64"
         id="stop6" />
    </linearGradient>
    <linearGradient
       id="f"
       x1="197.05099"
       x2="288.72"
       y1="279.65201"
       y2="279.65201"
       gradientUnits="userSpaceOnUse">
      <stop
         offset=".16"
         stop-color="#6bbf47"
         id="stop7" />
      <stop
         offset=".38"
         stop-color="#79b461"
         id="stop8" />
      <stop
         offset=".47"
         stop-color="#75ac64"
         id="stop9" />
      <stop
         offset=".7"
         stop-color="#659e5a"
         id="stop10" />
      <stop
         offset=".9"
         stop-color="#3e863d"
         id="stop11" />
    </linearGradient>
    <clipPath
       id="a">
      <path
         d="m 239.03,226.605 -42.13,24.317 a 5.085,5.085 0 0 0 -2.546,4.406 v 48.668 c 0,1.817 0.968,3.496 2.546,4.406 l 42.133,24.336 a 5.1,5.1 0 0 0 5.09,0 l 42.126,-24.336 a 5.096,5.096 0 0 0 2.54,-4.406 v -48.668 c 0,-1.816 -0.97,-3.496 -2.55,-4.406 l -42.12,-24.317 a 5.123,5.123 0 0 0 -5.1,0"
         id="path11" />
    </clipPath>
    <clipPath
       id="c">
      <path
         d="m 195.398,307.086 c 0.403,0.523 0.907,0.976 1.5,1.316 l 36.14,20.875 6.02,3.46 c 0.9,0.52 1.926,0.74 2.934,0.665 0.336,-0.027 0.672,-0.09 1,-0.183 l 44.434,-81.36 c -0.34,-0.37 -0.738,-0.68 -1.184,-0.94 l -27.586,-15.93 -14.582,-8.39 a 5.318,5.318 0 0 0 -1.32,-0.53 z m 0,0"
         id="path12" />
    </clipPath>
    <clipPath
       id="e">
      <path
         d="m 241.066,225.953 a 5.14,5.14 0 0 0 -2.035,0.652 l -42.01,24.247 45.3,82.51 c 0.63,-0.09 1.25,-0.3 1.81,-0.624 l 42.13,-24.336 a 5.105,5.105 0 0 0 2.46,-3.476 l -46.18,-78.89 a 5.29,5.29 0 0 0 -1.03,-0.102 l -0.42,0.02"
         id="path13" />
    </clipPath>
  </defs>
  <g
     clip-path="url(#a)"
     transform="matrix(0.35278,0,0,0.35278,-72.364204,-81.201916)"
     id="g14">
    <path
       fill="url(#b)"
       d="m 331.363,246.793 -118.715,-58.19 -60.87,124.174 118.712,58.193 z m 0,0"
       id="path14"
       style="fill:url(#b)" />
  </g>
  <g
     clip-path="url(#c)"
     transform="matrix(0.35278,0,0,0.35278,-72.364204,-81.201916)"
     id="g15">
    <path
       fill="url(#d)"
       d="m 144.07,264.004 83.825,113.453 110.86,-81.906 -83.83,-113.45 z m 0,0"
       id="path15"
       style="fill:url(#d)" />
  </g>
  <g
     clip-path="url(#e)"
     transform="matrix(0.35278,0,0,0.35278,-72.364204,-81.201916)"
     id="g16">
    <path
       fill="url(#f)"
       d="m 197.02,225.934 v 107.43 h 91.683 v -107.43 z m 0,0"
       id="path16"
       style="fill:url(#f)" />
  </g>
</svg>
