<svg width="800" height="800" viewBox="0 0 800 800" fill="none" xmlns="http://www.w3.org/2000/svg">
<path d="M290.42 435.194C284.421 435.194 280.021 430.395 280.021 424.396C280.021 421.596 281.221 418.797 283.221 416.797L324.014 376.005C326.413 374.005 329.613 374.005 332.012 376.005L366.006 409.999C368.406 411.998 368.406 415.597 366.006 417.997C365.206 418.797 364.406 419.197 363.207 419.597L292.819 434.794C292.019 434.794 291.219 435.194 290.42 435.194ZM327.613 383.603L288.42 422.796C287.62 423.596 287.22 424.796 288.02 425.996C288.42 427.195 289.62 427.595 290.82 427.195L356.808 412.798L327.613 383.603Z" fill="currentColor"/>
<path d="M588.766 278.822C550.773 278.822 519.979 248.028 519.979 210.035C519.979 172.042 550.773 141.247 588.766 141.247C606.363 141.247 623.56 148.046 636.358 160.444C637.157 161.243 637.557 162.043 637.557 163.243C637.557 164.443 637.157 165.243 636.358 166.043L582.367 220.033L624.76 262.425C626.359 264.025 626.359 266.425 624.76 268.024C624.36 268.424 624.36 268.424 623.96 268.824C613.562 275.223 601.164 278.822 588.766 278.822ZM588.766 149.646C555.172 149.646 527.977 176.841 528.377 210.435C528.377 244.029 555.572 271.224 589.166 270.824C598.364 270.824 607.563 268.824 615.961 264.425L573.969 222.832C573.169 222.033 572.769 221.233 572.769 220.033C572.769 218.833 573.169 218.033 573.969 217.233L627.559 163.643C616.761 154.445 603.164 149.646 588.766 149.646Z" fill="currentColor"/>
<path d="M622.361 269.624C621.161 269.624 620.361 269.224 619.561 268.424L573.969 222.832C573.169 222.032 572.77 221.232 572.77 220.033C572.77 218.833 573.169 218.033 573.969 217.233L630.759 160.443C632.359 158.844 634.758 158.844 636.358 160.443L637.558 161.243C664.353 188.038 664.353 231.231 637.958 258.426C633.959 262.425 629.559 266.024 624.76 268.824C623.56 269.224 622.761 269.624 622.361 269.624ZM582.368 220.033L622.761 260.425C625.96 258.426 629.159 255.626 631.559 253.227C654.355 230.431 655.555 193.238 633.559 169.242L582.368 220.033Z" fill="currentColor"/>
<path d="M390.402 443.993C389.202 443.993 388.402 443.593 387.602 442.793L362.407 417.597C360.807 415.998 360.807 413.598 362.407 411.998L513.18 261.226C524.378 250.028 542.374 250.028 553.572 261.226C564.77 272.424 564.77 290.42 553.572 301.618C553.172 302.018 552.772 302.418 552.373 302.818L392.801 442.793C392.401 443.593 391.602 443.993 390.402 443.993ZM371.205 414.798L390.802 434.394L547.573 296.819C556.372 289.621 557.172 276.423 549.973 267.624C542.774 258.826 529.577 258.026 520.778 265.225C520.378 265.625 519.978 266.025 519.179 266.425L371.205 414.798Z" fill="currentColor"/>
<path d="M246.827 633.159C243.628 633.159 240.428 631.959 238.429 629.559L194.837 585.967C194.037 585.167 193.637 584.367 193.637 583.168C193.637 581.968 194.037 581.168 194.837 580.368L323.204 452C324.004 451.201 324.7 450 325.5 450L390.801 436.394C392.001 436.394 392.801 436.794 393.601 437.594L427.195 471.188C427.994 471.988 428.394 473.187 428.394 474.387C428.394 475.587 427.994 476.387 426.795 477.187L423.995 479.586C381.603 516.78 324.013 553.973 252.426 589.566L259.225 617.961C260.425 623.16 258.025 628.759 253.226 631.559C250.826 632.759 248.827 633.159 246.827 633.159ZM202.835 583.168L244.028 623.96C245.227 625.96 247.627 626.76 249.627 625.56C251.626 624.36 252.426 621.961 251.226 619.961L244.428 591.166C243.628 587.567 245.227 584.367 248.427 582.768C319.214 547.174 376.404 510.381 418.396 473.987L388.802 444.393L329.5 456.903L202.835 583.168Z" fill="currentColor"/>
<path d="M248.427 637.957L166.442 632.358C160.443 631.958 156.444 626.759 156.844 620.76C157.244 618.361 158.044 615.961 160.043 614.362L194.437 579.968C196.037 578.368 198.436 578.368 200.036 579.968L251.227 631.159C252.427 632.358 252.827 633.958 252.027 635.558C251.227 637.158 250.027 637.957 248.427 637.957ZM197.237 588.766L165.642 620.361C164.443 621.16 164.443 623.16 165.642 623.96C166.042 624.36 166.442 624.76 167.242 624.76L238.029 629.559L197.237 588.766Z" fill="currentColor"/>
<path d="M326.413 457.99C324.014 457.99 322.414 455.99 322.414 453.991C322.414 452.791 322.814 451.991 323.614 451.191L362.407 412.398C364.007 410.798 366.406 410.798 368.006 412.398L393.201 437.593C394.401 438.793 394.801 439.993 394.401 441.593C394.001 442.793 392.801 443.992 391.202 444.392L327.213 457.99C326.813 457.99 326.413 457.99 326.413 457.99ZM365.206 420.797L338.811 447.192L382.003 437.993L365.206 420.797Z" fill="currentColor"/>
<path d="M3.27145 348.81C31.2664 130.049 232.43 -24.7233 451.19 3.27146C669.951 31.2664 824.723 231.631 796.728 450.791C768.334 669.951 567.97 824.723 348.81 796.728C130.049 768.334 -24.7233 567.57 3.27145 348.81ZM340.804 439.6L340.411 439.594L196.837 583.168L197.036 583.366L162.843 617.561C161.643 618.36 161.242 619.961 161.242 621.561C160.842 625.16 163.243 628.359 166.842 628.759L248.427 634.357L241.783 627.714C243.854 629.453 246.886 630.187 249.627 629.159C254.026 627.959 256.426 623.16 254.826 619.161L248.027 590.366C247.628 588.767 248.428 587.167 250.027 586.367C367.206 527.578 415.597 480.786 423.596 473.987L390.002 440.394L364.807 415.598L340.804 439.6ZM633.558 163.243C607.962 138.448 566.77 139.247 541.975 165.242C518.126 190.245 517.956 228.936 541.107 253.917C509.155 225.686 488.585 217.432 328.013 378.004L375.604 425.596L376.004 425.195L378.403 427.595L378.004 427.995L423.995 473.987C512.146 390.402 575.007 323.162 558.413 277.143C557.638 272.884 555.759 268.754 552.772 265.225C551.973 264.825 551.573 264.424 551.173 264.024C550.973 263.825 550.77 263.631 550.565 263.44C549.621 262.278 548.61 261.132 547.53 260.004C568.635 277.556 598.535 279.994 622.359 265.624L576.768 220.032L633.558 163.243ZM328.812 379.204C328.412 378.405 327.213 378.805 326.413 379.604L285.621 420.397C284.421 421.597 283.621 423.596 284.02 425.596C284.82 429.195 288.021 431.595 291.62 431.195L362.007 415.998C362.407 415.998 362.407 415.998 362.807 415.598C363.606 414.798 363.606 413.998 362.807 413.198L328.812 379.204ZM576.769 220.032L621.96 265.225C626.359 262.425 630.758 259.225 634.357 255.626C659.953 230.431 659.953 189.638 634.758 164.442L633.958 163.643L576.769 220.032ZM544.18 257.02C545.003 257.805 545.844 258.565 546.698 259.3L545.955 260.042C544.903 259.442 543.816 258.927 542.703 258.495L544.18 257.02Z" fill="currentColor"/>
<path d="M345.209 453.991C339.61 453.991 335.211 449.591 335.211 443.992C335.211 441.193 336.411 438.793 338.01 436.794L362.406 412.398C364.006 410.798 366.405 410.798 368.005 412.398L393.2 437.593C394.4 438.793 394.8 439.993 394.4 441.593C394 442.793 392.801 443.992 391.201 444.392L347.209 453.991C346.409 453.991 345.609 453.991 345.209 453.991ZM365.206 420.797L343.609 442.393C342.81 443.192 342.81 443.992 343.209 444.792C343.609 445.592 344.409 445.992 345.609 445.992L382.402 437.993L365.206 420.797Z" fill="currentColor"/>
<path d="M635.157 204.836C634.357 202.437 631.558 201.237 629.158 202.037C626.759 202.837 625.559 205.636 626.359 208.036C626.359 208.436 626.759 208.836 626.759 209.236C629.158 214.035 628.358 220.034 625.159 224.433C623.559 226.432 623.959 229.232 625.559 230.832C627.559 232.431 630.358 232.031 631.958 230.032C637.957 222.433 639.156 212.835 635.157 204.836Z" fill="currentColor"/>
</svg>
