<svg width="800" height="800" viewBox="0 0 800 800" fill="none" xmlns="http://www.w3.org/2000/svg">
<g clip-path="url(#clip0_41_361)">
<path d="M657.761 251.699C649.462 248.842 640.862 246.14 632.008 243.584C633.463 237.644 634.799 231.782 635.986 226.019C655.481 131.39 642.735 55.157 599.21 30.0578C557.476 5.99095 489.223 31.0845 420.29 91.0743C413.662 96.8429 407.015 102.95 400.37 109.351C395.943 105.116 391.523 101.024 387.114 97.1092C314.871 32.9641 242.458 5.93256 198.977 31.1044C157.282 55.241 144.935 126.908 162.483 216.588C164.177 225.25 166.158 234.096 168.398 243.089C158.15 245.999 148.256 249.1 138.789 252.399C54.0917 281.929 0 328.208 0 376.212C0 425.792 58.0674 475.52 146.286 505.673C153.248 508.053 160.472 510.302 167.917 512.438C165.5 522.166 163.398 531.698 161.634 540.995C144.902 629.119 157.969 699.092 199.552 723.076C242.504 747.845 314.589 722.386 384.782 661.029C390.33 656.179 395.897 651.035 401.475 645.644C408.705 652.606 415.923 659.195 423.103 665.375C491.093 723.882 558.244 747.508 599.789 723.457C642.698 698.616 656.643 623.448 638.538 531.994C637.155 525.009 635.546 517.874 633.739 510.611C638.802 509.115 643.771 507.57 648.617 505.964C740.329 475.577 800 426.454 800 376.212C800 328.035 744.164 281.443 657.761 251.699ZM637.869 473.524C633.494 474.972 629.006 476.372 624.432 477.729C614.308 445.676 600.643 411.593 583.921 376.379C599.878 342.004 613.015 308.357 622.856 276.512C631.039 278.88 638.982 281.378 646.636 284.013C720.667 309.499 765.824 347.179 765.824 376.212C765.824 407.139 717.055 447.285 637.869 473.524ZM605.012 538.631C613.017 579.071 614.161 615.634 608.858 644.216C604.093 669.899 594.511 687.022 582.664 693.88C557.452 708.473 503.537 689.504 445.391 639.468C438.725 633.732 432.011 627.608 425.276 621.126C447.818 596.472 470.347 567.812 492.334 535.981C531.008 532.549 567.547 526.939 600.681 519.279C602.313 525.862 603.763 532.319 605.012 538.631ZM272.738 691.358C248.106 700.058 228.488 700.307 216.629 693.469C191.394 678.914 180.904 622.732 195.213 547.369C196.852 538.738 198.803 529.872 201.052 520.81C233.823 528.057 270.094 533.271 308.86 536.414C330.996 567.561 354.176 596.19 377.535 621.258C372.432 626.185 367.348 630.876 362.293 635.296C331.254 662.427 300.15 681.677 272.738 691.358ZM157.339 473.334C118.331 460.001 86.1158 442.673 64.0339 423.764C44.1921 406.771 34.1743 389.901 34.1743 376.212C34.1743 347.082 77.6046 309.926 150.039 284.671C158.827 281.607 168.028 278.719 177.576 276.006C187.586 308.57 200.718 342.616 216.566 377.044C200.513 411.983 187.195 446.572 177.086 479.517C170.279 477.561 163.685 475.502 157.339 473.334ZM196.022 210.024C180.988 133.189 190.973 75.2267 216.099 60.6821C242.863 45.1877 302.045 67.2794 364.422 122.666C368.409 126.206 372.412 129.911 376.426 133.744C353.182 158.702 330.215 187.117 308.275 218.08C270.651 221.567 234.635 227.169 201.522 234.671C199.44 226.296 197.596 218.069 196.022 210.024ZM541.106 295.234C533.19 281.561 525.063 268.211 516.779 255.226C542.304 258.453 566.759 262.736 589.725 267.978C582.83 290.075 574.236 313.18 564.12 336.865C556.864 323.088 549.189 309.197 541.106 295.234ZM400.382 158.168C416.145 175.246 431.932 194.314 447.459 215.001C431.812 214.262 415.971 213.878 400 213.878C384.179 213.878 368.456 214.254 352.906 214.98C368.449 194.484 384.372 175.443 400.382 158.168ZM258.756 295.471C250.849 309.182 243.316 322.998 236.173 336.839C226.221 313.237 217.707 290.027 210.752 267.616C233.577 262.508 257.917 258.332 283.28 255.166C274.878 268.271 266.685 281.722 258.756 295.471ZM284.01 499.697C257.806 496.773 233.1 492.812 210.28 487.845C217.346 465.034 226.048 441.329 236.211 417.218C243.373 431.049 250.935 444.87 258.891 458.612C266.995 472.611 275.392 486.324 284.01 499.697ZM401.327 596.666C385.129 579.189 368.973 559.857 353.193 539.063C368.511 539.664 384.128 539.971 400 539.971C416.306 539.971 432.426 539.604 448.292 538.898C432.713 560.067 416.984 579.429 401.327 596.666ZM564.447 415.989C575.139 440.36 584.153 463.942 591.31 486.364C568.115 491.655 543.071 495.917 516.685 499.084C524.989 485.924 533.187 472.345 541.243 458.377C549.392 444.245 557.13 430.092 564.447 415.989ZM511.639 441.303C499.134 462.986 486.295 483.685 473.261 503.224C449.522 504.921 424.997 505.796 400 505.796C375.104 505.796 350.888 505.022 327.569 503.509C314.01 483.714 300.892 462.953 288.466 441.49C276.073 420.084 264.67 398.498 254.334 377.033C264.667 355.518 276.043 333.907 288.365 312.54L288.362 312.545C300.717 291.121 313.719 270.461 327.153 250.79C350.945 248.992 375.342 248.054 399.999 248.054C424.766 248.054 449.196 248.999 472.981 250.813C486.21 270.34 499.124 290.933 511.527 312.359C524.071 334.027 535.594 355.494 546.014 376.547C535.625 397.963 524.128 419.646 511.639 441.303ZM582.14 59.6654C608.929 75.1142 619.347 137.419 602.515 219.121C601.442 224.334 600.233 229.644 598.92 235.025C565.73 227.367 529.688 221.668 491.954 218.128C469.972 186.825 447.192 158.366 424.327 133.728C430.475 127.815 436.614 122.176 442.727 116.854C501.788 65.4553 556.989 45.162 582.14 59.6654ZM400 304.775C439.453 304.775 471.437 336.758 471.437 376.212C471.437 415.666 439.453 447.65 400 447.65C360.547 447.65 328.563 415.666 328.563 376.212C328.563 336.758 360.547 304.775 400 304.775Z" fill="currentColor"/>
</g>
<defs>
<clipPath id="clip0_41_361">
<rect width="800" height="711.773" fill="white" transform="translate(0 21)"/>
</clipPath>
</defs>
</svg>
