<svg width="800" height="800" viewBox="0 0 800 800" fill="none" xmlns="http://www.w3.org/2000/svg">
<path d="M688.784 444.634C663.664 444.667 638.88 450.408 616.306 461.422C609.238 449.7 603.78 437.082 600.079 423.906C597.952 413.578 597.461 402.98 598.622 392.5C601.064 380.968 604.232 369.601 608.107 358.467C607.964 357.011 606.364 350.13 590.28 349.902C574.196 349.673 560.34 352.957 558.855 357.211C556.061 364.981 553.818 372.938 552.141 381.022C538.829 413.842 522.444 445.331 503.203 475.069C492.423 457.408 487.989 436.602 490.633 416.083C493.075 404.551 496.243 393.184 500.118 382.05C499.975 380.594 498.375 373.713 482.291 373.485C466.207 373.257 452.351 376.54 450.866 380.794C449.38 385.048 447.494 395.07 444.152 404.606C440.809 414.142 401.785 501.279 391.557 523.749C386.301 535.169 381.758 544.477 378.559 550.758C378.407 551.166 378.216 551.558 377.987 551.929C375.13 557.325 373.616 560.266 373.616 560.266V560.408C371.417 564.348 369.074 568.003 367.903 568.003C365.86 559.846 365.958 551.3 368.188 543.192C373.902 512.957 387.901 465.962 387.758 464.334C387.758 463.449 390.386 455.284 378.702 451.058C375.992 449.769 372.948 449.352 369.991 449.863C367.034 450.374 364.308 451.789 362.189 453.913C361.16 453.913 360.446 456.397 360.446 456.397C360.446 456.397 373.159 403.549 336.192 403.549C321.796 406.443 308.124 412.185 295.981 420.437C283.839 428.689 273.47 439.285 265.485 451.601C255.543 456.997 234.373 468.531 211.719 480.951C203.148 485.776 194.177 490.601 185.864 495.226C185.293 494.655 184.693 493.913 184.121 493.342C139.126 445.434 56.4201 411.629 59.9912 347.532C61.3054 324.177 69.3331 262.85 218.804 188.36C341.82 127.775 439.724 144.563 456.665 181.794C480.92 234.956 404.213 333.656 277.112 347.96C263.051 350.811 248.528 350.467 234.618 346.954C220.708 343.44 207.766 336.846 196.749 327.661C190.035 320.352 189.007 319.923 186.521 321.379C182.436 323.578 185.064 330.145 186.521 333.942C191.37 342.711 197.928 350.421 205.809 356.614C213.689 362.808 222.732 367.36 232.402 370.002C282.404 380.8 334.536 375.637 381.444 355.241C458.579 325.462 518.573 242.664 500.975 173.314C483.291 102.936 366.417 79.7237 255.8 119.067C186.514 142.367 122.494 179.067 67.3904 227.075C6.45381 284.035 -3.17377 333.514 0.768681 354.27C15.0529 427.875 116.5 475.755 157.096 511.301C155.039 512.471 153.153 513.499 151.553 514.356C131.241 524.434 53.8204 564.891 34.4224 607.66C12.5103 656.197 37.9363 690.887 54.7346 695.569C80.0465 701.624 106.619 699.63 130.741 689.863C154.864 680.097 175.334 663.047 189.292 641.094C201.179 622.884 208.485 602.073 210.589 580.434C212.693 558.794 209.533 536.967 201.377 516.811C201.239 516.485 201.046 516.186 200.805 515.926L216.718 506.59C227.088 500.451 237.316 494.77 246.086 490.087C240.139 507.231 236.648 525.129 235.716 543.249C233.697 571.023 242.202 598.54 259.542 620.337C262.181 622.607 265.244 624.331 268.554 625.409C271.864 626.487 275.356 626.898 278.826 626.618C295.967 626.618 303.823 612.343 312.423 595.383C322.936 574.655 332.421 550.558 332.421 550.558C332.421 550.558 320.593 615.683 352.733 615.683C364.417 615.683 376.245 600.494 381.53 592.842V592.985C381.53 592.985 381.815 592.557 382.415 591.529L384.301 588.474V588.189C388.986 580.023 399.499 561.465 415.126 530.658C435.296 490.944 454.722 441.294 454.722 441.294C456.596 452.205 459.182 462.982 462.464 473.556C467.17 486.374 472.734 498.86 479.12 510.93C474.435 517.496 471.521 521.151 471.521 521.151L471.663 521.294C467.864 526.261 463.779 531.658 459.236 536.911C445.722 551.76 433.182 567.467 421.697 583.934C419.991 586.7 419.404 590.012 420.057 593.196C420.71 596.379 422.553 599.193 425.211 601.065C431.225 604.192 438.08 605.323 444.78 604.291C454.878 603.722 464.807 601.453 474.149 597.582C483.177 594.407 491.694 589.934 499.432 584.306C507.409 578.782 513.83 571.301 518.078 562.581C522.326 553.86 524.257 544.195 523.687 534.513C522.788 522.317 519.671 510.387 514.488 499.309C515.945 497.254 517.344 495.226 518.716 493.171C534.958 468.942 549.597 443.678 562.54 417.539C564.414 428.451 567 439.228 570.282 449.802C574.163 460.878 578.94 471.62 584.566 481.922C565.881 496.289 551.163 515.174 541.799 536.797C532.6 563.378 539.742 575.341 553.227 578.11C560.605 578.618 567.983 577.108 574.567 573.742C584.248 570.562 593.369 565.879 601.593 559.866C610.265 554.751 617.529 547.562 622.73 538.945C627.931 530.328 630.907 520.553 631.39 510.501C630.741 500.467 628.474 490.604 624.676 481.294C649.334 471.666 676.069 468.597 702.268 472.386C771.804 480.551 785.546 523.92 782.917 542.193C781.685 548.671 779.079 554.81 775.275 560.197C771.47 565.585 766.556 570.096 760.862 573.428C756.034 576.483 754.435 577.51 754.863 579.709C755.434 582.935 757.72 582.764 761.862 582.193C772.343 578.938 781.589 572.584 788.383 563.97C795.176 555.356 799.197 544.886 799.916 533.942C802.115 491.115 761.205 444.149 688.87 444.577L688.784 444.634ZM152.267 625.305C129.184 650.43 97.0446 659.909 83.1603 651.886C68.2475 643.321 74.104 606.204 102.444 579.595C119.255 564.471 137.425 550.928 156.724 539.138C160.095 537.082 165.066 534.17 171.008 530.573L172.608 529.688L176.122 527.489C181.185 544.443 181.644 562.437 177.452 579.626C173.26 596.815 164.568 612.581 152.267 625.305ZM320.279 511.101C312.251 530.658 295.453 580.765 285.225 577.967C276.455 575.626 270.941 537.653 283.483 500.137C289.815 482.077 299.039 465.165 310.794 450.059C323.364 436.04 337.249 431.358 340.591 437.068C337.542 462.618 330.696 487.57 320.279 511.101ZM458.922 577.396C455.551 579.138 452.351 580.251 450.894 579.452C449.866 578.881 452.351 576.597 452.351 576.597C452.351 576.597 469.749 557.896 476.606 549.445C480.548 544.477 485.176 538.653 490.204 532.057V533.942C490.204 556.269 468.578 571.315 458.95 577.453L458.922 577.396ZM565.882 553.014C563.397 551.272 563.825 545.419 572.167 527.175C577.968 515.458 586.071 505.029 595.994 496.511C597.515 500.833 598.306 505.378 598.336 509.959C598.449 519.71 595.329 529.224 589.464 537.018C583.598 544.811 575.317 550.446 565.911 553.042L565.882 553.014Z" fill="currentColor"/>
</svg>
