<svg width="800" height="800" viewBox="0 0 800 800" fill="none" xmlns="http://www.w3.org/2000/svg">
<path d="M466.234 786.709C445.793 812.446 404.347 798.344 403.854 765.481L396.652 284.825H719.902C778.451 284.825 811.105 352.438 774.698 398.284L466.234 786.709Z" fill="url(#paint0_linear_41_371)"/>
<path d="M466.234 786.709C445.793 812.446 404.347 798.344 403.854 765.481L396.652 284.825H719.902C778.451 284.825 811.105 352.438 774.698 398.284L466.234 786.709Z" fill="url(#paint1_linear_41_371)" fill-opacity="0.2"/>
<path d="M334.769 13.2927C355.21 -12.4472 396.656 1.6564 397.149 34.5195L400.305 515.175H81.1008C22.5499 515.175 -10.1051 447.562 26.3036 401.716L334.769 13.2927Z" fill="#1A1A1A"/>
<defs>
<linearGradient id="paint0_linear_41_371" x1="396.652" y1="391.399" x2="683.93" y2="511.904" gradientUnits="userSpaceOnUse">
<stop stop-color="#1F1F1F"/>
<stop offset="1"/>
</linearGradient>
<linearGradient id="paint1_linear_41_371" x1="269.282" y1="217.036" x2="400.266" y2="463.651" gradientUnits="userSpaceOnUse">
<stop/>
<stop offset="1" stop-opacity="0"/>
</linearGradient>
</defs>
</svg>
