<svg width="800" height="800" viewBox="0 0 800 800" fill="none" xmlns="http://www.w3.org/2000/svg">
<g clip-path="url(#clip0_41_347)">
<path d="M202.5 303C228.833 197.667 294.667 145 400 145C558 145 577.75 263.5 656.75 283.25C709.417 296.417 755.5 276.667 795 224C768.667 329.333 702.833 382 597.5 382C439.5 382 419.75 263.5 340.75 243.75C288.083 230.583 242 250.333 202.5 303ZM5 540C31.3333 434.667 97.1667 382 202.5 382C360.5 382 380.25 500.5 459.25 520.25C511.917 533.417 558 513.667 597.5 461C571.167 566.333 505.333 619 400 619C242 619 222.25 500.5 143.25 480.75C90.5833 467.583 44.5 487.333 5 540Z" fill="currentColor"/>
</g>
<defs>
<clipPath id="clip0_41_347">
<rect width="790" height="474" fill="white" transform="translate(5 145)"/>
</clipPath>
</defs>
</svg>
