<svg width="800" height="800" viewBox="0 0 800 800" fill="none" xmlns="http://www.w3.org/2000/svg">
<path fill-rule="evenodd" clip-rule="evenodd" d="M100 150V600C100 627.625 122.375 650 150 650H300C327.625 650 350 627.625 350 600V150C350 122.375 327.625 100 300 100H150C122.375 100 100 122.375 100 150ZM450 150V400C450 427.625 472.375 450 500 450H650C677.625 450 700 427.625 700 400V150C700 122.375 677.625 100 650 100H500C472.375 100 450 122.375 450 150ZM100 0C44.775 0 0 44.8 0 100V700C0 755.225 44.8 800 100 800H700C755.225 800 800 755.2 800 700V100C800 44.775 755.2 0 700 0H100Z" fill="currentColor"/>
</svg>
