<svg width="800" height="800" viewBox="0 0 800 800" fill="none" xmlns="http://www.w3.org/2000/svg">
<path d="M762.515 0C783.217 0.000197914 800 16.7829 800 37.4854V762.515C800 783.217 783.217 800 762.515 800H37.4854C16.7829 800 0.000197926 783.217 0 762.515V37.4854C0.000195852 16.7829 16.7829 0.000195864 37.4854 0H762.515ZM670.485 328.571C652.511 325.956 634.363 324.724 616.2 324.886C596.346 324.779 576.55 327.032 557.229 331.6C539.764 335.59 523.158 342.684 508.2 352.543C494.305 361.799 482.832 374.252 474.743 388.857C466.171 405.076 461.929 423.233 462.429 441.571C461.796 465.822 469.783 489.512 484.972 508.429C503.606 529.402 527.103 545.482 553.4 555.257C565.4 560.209 576.591 565.057 586.972 569.8C596.338 573.967 605.34 578.908 613.886 584.571C620.778 589.055 626.832 594.713 631.771 601.286C635.979 607.062 638.273 614.003 638.343 621.138V622.347C638.293 627.695 636.877 632.946 634.229 637.6C631.19 642.762 626.92 647.091 621.8 650.2C615.393 654.106 608.384 656.925 601.058 658.543C591.513 660.677 581.751 661.684 571.972 661.543C552.78 661.508 533.742 658.124 515.714 651.543C496.88 644.747 479.414 634.635 464.143 621.686V709.343C480.069 717.204 497.043 722.737 514.543 725.771C534.766 729.505 555.293 731.341 575.857 731.257C595.9 731.352 615.897 729.332 635.515 725.229C653.128 721.669 669.934 714.889 685.086 705.229C699.152 696.148 710.747 683.72 718.829 669.058C733.304 638.696 735.213 603.848 724.143 572.086C719.471 560.208 712.511 549.365 703.657 540.172C694.154 530.396 683.358 521.966 671.571 515.114C658.001 507.166 643.901 500.159 629.371 494.143C617.943 489.4 607.657 484.791 598.515 480.314C590.394 476.426 582.623 471.848 575.286 466.629C569.54 462.601 564.549 457.59 560.543 451.828C557.082 446.597 555.279 440.444 555.371 434.172C555.295 428.399 556.904 422.73 560 417.857C563.363 412.758 567.849 408.497 573.114 405.4C579.551 401.611 586.554 398.881 593.857 397.314C602.823 395.323 611.988 394.364 621.172 394.457C628.896 394.484 636.609 395.037 644.257 396.114C652.516 397.231 660.689 398.921 668.714 401.172C676.877 403.434 684.861 406.299 692.6 409.743C700.109 413.091 707.293 417.126 714.058 421.8V340C699.975 334.672 685.37 330.841 670.485 328.571ZM112.515 403.457H226.286V725H316.886V403.457H431.172V331.257H112.515V403.457Z" fill="currentColor"/>
</svg>
