<svg width="800" height="800" viewBox="0 0 800 800" fill="none" xmlns="http://www.w3.org/2000/svg">
<g clip-path="url(#clip0_41_351)">
<path d="M115.583 628.269C106.025 636.436 92.6846 638.531 81.0833 633.686L20.5 608.269C8.14567 603.116 0.0725888 591.072 0 577.686V222.186C0.0725888 208.8 8.14567 196.756 20.5 191.603L81.0833 166.603C92.6846 161.757 106.025 163.852 115.583 172.019L129.167 183.269C123.55 179.232 116.145 178.682 109.994 181.845C103.842 185.009 99.9826 191.352 100 198.269V601.603C99.9825 608.52 103.842 614.863 109.994 618.027C116.145 621.19 123.55 620.64 129.167 616.603L115.583 628.269Z" fill="currentColor"/>
<path d="M20.5 608.27C8.14567 603.116 0.0725888 591.072 0 577.686V574.936C0.0840419 582.808 4.95288 589.836 12.2935 592.68C19.6341 595.525 27.9669 593.613 33.3333 587.853L550 16.6031C564.993 1.6845 587.751 -2.18638 606.833 6.93641L771.667 86.2697C788.993 94.6007 800.008 112.128 800 131.353V133.27C799.991 121.071 792.955 109.969 781.929 104.75C770.903 99.5312 757.858 101.128 748.417 108.853L129.167 616.603L115.583 628.27C106.025 636.437 92.6846 638.532 81.0833 633.686L20.5 608.27Z" fill="#0C0C0C"/>
<path d="M20.5 191.603C8.14567 196.757 0.0725888 208.801 0 222.187V224.937C0.0840419 217.065 4.95288 210.037 12.2935 207.193C19.6341 204.348 27.9669 206.26 33.3333 212.02L550 783.27C564.993 798.188 587.751 802.059 606.833 792.936L771.667 713.603C788.993 705.272 800.008 687.745 800 668.52V666.603C799.991 678.802 792.955 689.904 781.929 695.123C770.903 700.342 757.858 698.745 748.417 691.02L129.167 183.27L115.583 171.603C105.941 163.577 92.6079 161.644 81.0833 166.603L20.5 191.603Z" fill="#0F0F0F"/>
<path d="M606.833 792.936C587.751 802.059 564.993 798.188 550 783.27C558.397 791.607 570.981 794.082 581.91 789.546C592.839 785.011 599.973 774.353 600 762.52V37.5197C600.041 25.6566 592.931 14.937 581.987 10.3587C571.043 5.78038 558.419 8.24484 550 16.6031C564.993 1.6845 587.751 -2.18638 606.833 6.93641L771.667 86.1864C788.993 94.5173 800.008 112.045 800 131.27V668.603C800.009 687.828 788.993 705.356 771.667 713.686L606.833 792.936Z" fill="currentColor"/>
<path d="M574.083 796.603C585.101 799.117 596.645 797.824 606.833 792.936L771.667 713.686C788.993 705.355 800.008 687.828 800 668.603V131.269C800.009 112.044 788.993 94.517 771.667 86.1861L606.833 6.93609C595.17 1.32983 581.788 0.463568 569.5 4.51942C562.151 6.9815 555.476 11.1181 550 16.6028L284.333 310.436L129.167 183.269L115.583 171.603C107.292 164.513 96.0554 161.93 85.5 164.686C83.9772 165.022 82.4961 165.526 81.0833 166.186L20.5 191.603C8.93897 196.376 1.02323 207.22 0 219.686C0 220.519 0 221.353 0 222.186V577.686C0 578.519 0 579.353 0 580.186C1.02323 592.652 8.93897 603.496 20.5 608.269L81.0833 633.269C82.4961 633.93 83.9772 634.433 85.5 634.769C96.0554 637.526 107.292 634.942 115.583 627.853L129.167 616.603L284.333 489.436L550 783.269C556.622 789.88 564.966 794.499 574.083 796.603ZM600 230.603L393.417 399.936L600 569.269V230.603ZM100 285.519L203.417 399.936L100 514.353V285.519Z" fill="url(#paint0_linear_41_351)" fill-opacity="0.25"/>
</g>
<defs>
<linearGradient id="paint0_linear_41_351" x1="400" y1="2.01942" x2="400" y2="797.853" gradientUnits="userSpaceOnUse">
<stop stop-color="white" stop-opacity="0.46"/>
<stop offset="1" stop-color="white" stop-opacity="0"/>
</linearGradient>
<clipPath id="clip0_41_351">
<rect width="800" height="795.856" fill="white" transform="translate(0 2)"/>
</clipPath>
</defs>
</svg>
