<svg width="800" height="800" viewBox="0 0 800 800" fill="none" xmlns="http://www.w3.org/2000/svg">
<g clip-path="url(#clip0_41_344)">
<path d="M7.70179 117.287C-0.780417 102.409 11.9366 84.3901 28.7936 87.4012L290.648 134.207L277.927 349.066C277.532 355.795 283.71 361.018 290.275 359.503L366.833 341.837C373.997 340.183 380.47 346.494 378.997 353.695L356.253 465.076C354.72 472.569 361.758 478.981 369.078 476.759L416.364 462.389C423.695 460.165 430.737 466.594 429.188 474.096L393.043 649.049C390.781 659.991 405.336 665.956 411.407 656.575L415.462 650.309L639.525 203.145C643.277 195.658 636.811 187.123 628.584 188.709L549.783 203.917C542.375 205.344 536.076 198.449 538.166 191.202L556.756 126.754L772.133 87.4969C788.934 84.4348 801.717 102.318 793.381 117.224L421.809 781.663C414.136 795.379 394.429 795.461 386.639 781.81L7.70179 117.287Z" fill="url(#paint0_linear_41_344)"/>
<path d="M567.131 0.195217C574.544 -1.25808 580.867 5.64339 578.774 12.9042L545.932 126.754L397.116 153.879C394.745 154.31 392.316 154.315 389.943 153.891L279.824 134.206L284.018 63.3886C284.15 61.1533 285.021 59.0248 286.494 57.3388C287.968 55.6529 289.96 54.5051 292.157 54.0751L567.131 0.195217Z" fill="url(#paint1_linear_41_344)"/>
</g>
<defs>
<linearGradient id="paint0_linear_41_344" x1="-1.5514" y1="63.6523" x2="460.881" y2="691.667" gradientUnits="userSpaceOnUse">
<stop stop-color="#2C2C2C"/>
<stop offset="1"/>
</linearGradient>
<linearGradient id="paint1_linear_41_344" x1="368.574" y1="14.8214" x2="452.226" y2="588.661" gradientUnits="userSpaceOnUse">
<stop stop-color="#2C2C2C"/>
<stop offset="0.0833" stop-color="#212121"/>
<stop offset="1"/>
</linearGradient>
<clipPath id="clip0_41_344">
<rect width="791" height="792" fill="white" transform="translate(5)"/>
</clipPath>
</defs>
</svg>
