<svg width="800" height="800" viewBox="0 0 800 800" fill="none" xmlns="http://www.w3.org/2000/svg">
<g clip-path="url(#clip0_41_349)">
<mask id="mask0_41_349" style="mask-type:luminance" maskUnits="userSpaceOnUse" x="3" y="3" width="797" height="794">
<path d="M568.086 793.39C580.637 798.28 594.95 797.966 607.619 791.871L771.685 712.926C788.924 704.63 799.887 687.18 799.887 668.039V132.74C799.887 113.598 788.924 96.1504 771.685 87.8547L607.619 8.9069C590.994 0.90708 571.535 2.86654 556.946 13.4746C554.86 14.99 552.874 16.6819 551.012 18.5465L236.927 305.092L100.118 201.243C87.3826 191.576 69.569 192.367 57.7409 203.127L13.8618 243.041C-0.606325 256.202 -0.622917 278.964 13.826 292.146L132.471 400.388L13.826 508.63C-0.622918 521.813 -0.606325 544.574 13.8618 557.736L57.7409 597.648C69.569 608.409 87.3826 609.2 100.118 599.535L236.927 495.684L551.012 782.23C555.981 787.202 561.814 790.946 568.086 793.39V793.39ZM600.787 219.486L362.468 400.388L600.787 581.29V219.486Z" fill="white"/>
</mask>
<g mask="url(#mask0_41_349)">
<path d="M772.171 87.978L607.978 8.92141C588.974 -0.229355 566.26 3.63064 551.343 18.5461L13.8326 508.631C-0.625127 521.814 -0.608505 544.575 13.8684 557.736L57.774 597.649C69.6096 608.41 87.4341 609.2 100.177 599.535L747.465 108.487C769.18 92.0135 800.37 107.502 800.37 134.759V132.853C800.37 113.72 789.41 96.278 772.171 87.978Z" fill="currentColor"/>
</g>
<mask id="mask1_41_349" style="mask-type:luminance" maskUnits="userSpaceOnUse" x="3" y="3" width="797" height="794">
<path d="M568.086 793.39C580.637 798.28 594.95 797.966 607.619 791.871L771.685 712.926C788.924 704.63 799.887 687.18 799.887 668.039V132.74C799.887 113.598 788.924 96.1504 771.685 87.8547L607.619 8.9069C590.994 0.90708 571.535 2.86654 556.946 13.4746C554.86 14.99 552.874 16.6819 551.012 18.5465L236.927 305.092L100.118 201.243C87.3826 191.576 69.569 192.367 57.7409 203.127L13.8618 243.041C-0.606325 256.202 -0.622917 278.964 13.826 292.146L132.471 400.388L13.826 508.63C-0.622918 521.813 -0.606325 544.574 13.8618 557.736L57.7409 597.648C69.569 608.409 87.3826 609.2 100.118 599.535L236.927 495.684L551.012 782.23C555.981 787.202 561.814 790.946 568.086 793.39V793.39ZM600.787 219.486L362.468 400.388L600.787 581.29V219.486Z" fill="white"/>
</mask>
<g mask="url(#mask1_41_349)">
<path d="M772.171 712.8L607.978 791.856C588.974 801.005 566.26 797.145 551.343 782.232L13.8326 292.146C-0.625127 278.964 -0.608505 256.202 13.8684 243.042L57.774 203.127C69.6096 192.368 87.4341 191.576 100.177 201.243L747.465 692.289C769.18 708.762 800.37 693.276 800.37 666.017V667.925C800.37 687.056 789.41 704.498 772.171 712.8Z" fill="#0F0F0F"/>
</g>
<mask id="mask2_41_349" style="mask-type:luminance" maskUnits="userSpaceOnUse" x="3" y="3" width="797" height="794">
<path d="M568.086 793.39C580.637 798.28 594.95 797.966 607.619 791.871L771.685 712.926C788.924 704.63 799.887 687.18 799.887 668.039V132.74C799.887 113.598 788.924 96.1504 771.685 87.8547L607.619 8.9069C590.994 0.90708 571.535 2.86654 556.946 13.4746C554.86 14.99 552.874 16.6819 551.012 18.5465L236.927 305.092L100.118 201.243C87.3826 191.576 69.569 192.367 57.7409 203.127L13.8618 243.041C-0.606325 256.202 -0.622917 278.964 13.826 292.146L132.471 400.388L13.826 508.63C-0.622918 521.813 -0.606325 544.574 13.8618 557.736L57.7409 597.648C69.569 608.409 87.3826 609.2 100.118 599.535L236.927 495.684L551.012 782.23C555.981 787.202 561.814 790.946 568.086 793.39V793.39ZM600.787 219.486L362.468 400.388L600.787 581.29V219.486Z" fill="white"/>
</mask>
<g mask="url(#mask2_41_349)">
<path d="M607.464 791.92C588.453 801.062 565.739 797.199 550.822 782.282C569.2 800.66 600.628 787.643 600.628 761.65V39.2273C600.628 13.235 569.2 0.217911 550.822 18.5973C565.739 3.68045 588.453 -0.184992 607.464 8.95769L771.629 87.9056C788.88 96.2013 799.85 113.649 799.85 132.791V668.091C799.85 687.232 788.88 704.679 771.629 712.975L607.464 791.92Z" fill="#0C0C0C"/>
</g>
<mask id="mask3_41_349" style="mask-type:luminance" maskUnits="userSpaceOnUse" x="3" y="3" width="797" height="794">
<path d="M568.086 793.39C580.637 798.28 594.95 797.966 607.619 791.871L771.685 712.926C788.924 704.63 799.887 687.18 799.887 668.039V132.74C799.887 113.598 788.924 96.1504 771.685 87.8547L607.619 8.9069C590.994 0.90708 571.535 2.86654 556.946 13.4746C554.86 14.99 552.874 16.6819 551.012 18.5465L236.927 305.092L100.118 201.243C87.3826 191.576 69.569 192.367 57.7409 203.127L13.8618 243.041C-0.606325 256.202 -0.622917 278.964 13.826 292.146L132.471 400.388L13.826 508.63C-0.622918 521.813 -0.606325 544.574 13.8618 557.736L57.7409 597.648C69.569 608.409 87.3826 609.2 100.118 599.535L236.927 495.684L551.012 782.23C555.981 787.202 561.814 790.946 568.086 793.39V793.39ZM600.787 219.486L362.468 400.388L600.787 581.29V219.486Z" fill="white"/>
</mask>
<g mask="url(#mask3_41_349)">
<path d="M568.087 793.39C580.638 798.278 594.951 797.966 607.617 791.871L771.682 712.924C788.925 704.628 799.888 687.18 799.888 668.04V132.74C799.888 113.598 788.924 96.1503 771.686 87.8546L607.617 8.90692C590.995 0.907076 571.536 2.86653 556.943 13.4746C554.861 14.99 552.875 16.6819 551.01 18.5465L236.927 305.092L100.118 201.243C87.3827 191.575 69.5689 192.368 57.7407 203.127L13.8618 243.041C-0.606325 256.202 -0.622917 278.964 13.826 292.146L132.471 400.388L13.826 508.631C-0.622918 521.814 -0.606325 544.575 13.8618 557.736L57.7407 597.649C69.5689 608.41 87.3827 609.201 100.118 599.535L236.927 495.685L551.01 782.231C555.978 787.202 561.815 790.947 568.087 793.39ZM600.788 219.486L362.468 400.388L600.788 581.291V219.486Z" fill="url(#paint0_linear_41_349)" fill-opacity="0.25"/>
</g>
</g>
<defs>
<linearGradient id="paint0_linear_41_349" x1="401.444" y1="3.99954" x2="401.444" y2="796.777" gradientUnits="userSpaceOnUse">
<stop stop-color="white" stop-opacity="0.46"/>
<stop offset="1" stop-color="white" stop-opacity="0"/>
</linearGradient>
<clipPath id="clip0_41_349">
<rect width="796.887" height="792.78" fill="white" transform="translate(3 4)"/>
</clipPath>
</defs>
</svg>
