<svg width="800" height="801" viewBox="0 0 800 801" fill="none" xmlns="http://www.w3.org/2000/svg">
<g clip-path="url(#clip0_41_346)">
<path fill-rule="evenodd" clip-rule="evenodd" d="M0 399.988C0 558.318 92.0027 695.147 225.432 759.974L34.6258 237.207C12.4501 286.934 0 341.986 0 399.988ZM670.026 379.812C670.026 330.36 652.25 296.135 637.05 269.509C616.774 236.533 597.749 208.632 597.749 175.681C597.749 138.904 625.624 104.678 664.926 104.678C666.701 104.678 668.376 104.903 670.101 105.003C598.949 39.8007 504.121 0 399.992 0C260.238 0 137.309 71.7021 65.7822 180.281C75.1825 180.581 84.0327 180.756 91.5329 180.756C133.359 180.756 198.136 175.681 198.136 175.681C219.687 174.406 222.237 206.106 200.686 208.631C200.686 208.631 179.011 211.181 154.91 212.456L300.565 645.72L388.117 383.187L325.815 212.456C304.265 211.181 283.839 208.631 283.839 208.631C262.288 207.356 264.813 174.406 286.389 175.681C286.389 175.681 352.441 180.756 391.742 180.756C433.568 180.756 498.345 175.681 498.345 175.681C519.921 174.406 522.446 206.106 500.896 208.631C500.896 208.631 479.195 211.181 455.119 212.456L599.673 642.42L639.6 509.116C656.851 453.764 670.026 414.038 670.026 379.812ZM750.998 208.089C752.723 220.84 753.699 234.49 753.699 249.216C753.699 289.792 746.098 335.418 723.273 392.495L601.094 745.731C720.023 676.403 800 547.55 800 399.995C800 330.443 782.224 265.066 750.998 208.089ZM407.018 434.978L286.989 783.715C322.84 794.265 360.741 800.015 399.992 800.015C446.569 800.015 491.245 791.965 532.822 777.34C531.772 775.614 530.771 773.814 529.971 771.839L407.018 434.978Z" fill="currentColor"/>
</g>
<defs>
<clipPath id="clip0_41_346">
<rect width="800" height="800.015" fill="white"/>
</clipPath>
</defs>
</svg>
